<?xml version="1.0" encoding="UTF-8"?>
<svg xmlns="http://www.w3.org/2000/svg" viewBox="1 1 98 98">
	<path stroke="#090" d="m5,86h90"/>
	<path stroke="#c90" d="m5,86l67.5,-39"/>
	<path stroke="#09f" d="m95,86l-67.5,-39"/>
	<path stroke="#c00" d="m50,8l-45,78"/>
	<path stroke="#00f" d="m50,8l 45,78"/>
	<path stroke="#c0f" d="m50,8v78"/>
	<circle stroke="#000" fill="none" cx="50" cy="60" r="26"/>
	<circle cx="50" cy="8" r="2.5" stroke="#c0f" fill="#00f"/><circle cx="50" cy="8" r="1" fill="#c00"/>
	<circle cx="27.5" cy="47" r="2.5" stroke="#000" fill="#09f"/><circle cx="27.5" cy="47" r="1" fill="#c00"/>
	<circle cx="5" cy="86" r="2.5" stroke="#090" fill="#c90"/><circle cx="5" cy="86" r="1" fill="#c00"/>
	<circle cx="50" cy="86" r="2.5" stroke="#000" fill="#090"/><circle cx="50" cy="86" r="1" fill="#c0f"/>
	<circle cx="95" cy="86" r="2.5" stroke="#090" fill="#00f"/><circle cx="95" cy="86" r="1" fill="#09f"/>
	<circle cx="72.5" cy="47" r="2.5" stroke="#000" fill="#c90"/><circle cx="72.5" cy="47" r="1" fill="#00f"/>
	<circle cx="50" cy="60" r="2.5" stroke="#c90" fill="#c0f"/><circle cx="50" cy="60" r="1" fill="#09f"/>
</svg>